# xmcd
#
# Track frame offsets: 
#        150
#        23922
#        55580
#        73172
#        91285
#        109872
#        135187
#        148875
#
# Disc length: 2315 seconds
#
# Revision: 3
# Processed by: cddbd v1.5.2PL0 Copyright (c) Steve Scherf et al.
# Submitted via: ExactAudioCopy v1.3
#
DISCID=6b090908
DTITLE=Chet Baker - Chet Baker and Crew
DYEAR=1956
DGENRE=Jazz
TTITLE0=To Mickey's Memory
TTITLE1=Slightly Above Moderate
TTITLE2=Halema
TTITLE3=Revelation
TTITLE4=Something For Liza
TTITLE5=Lucius Lu
TTITLE6=Worrying The Life Out of Me
TTITLE7=Medium Rock
EXTD=
EXTT0=
EXTT1=
EXTT2=
EXTT3=
EXTT4=
EXTT5=
EXTT6=
EXTT7=
PLAYORDER=
